
<svg xmlns="http://www.w3.org/2000/svg"
   width="1550" height="500"
   viewBox="0 0 1625 200">

<!-- ===== GLYPH DEFINITIONS (LOCAL COORDS ONLY) ===== -->
<defs>
  <g id="p">
    <line x1="0" y1="0" x2="0" y2="100"/>
    <line x1="0" y1="0" x2="50" y2="0"/>
  </g>
  <g id="b">
    <line x1="0" y1="0" x2="0" y2="100"/>
    <line x1="0" y1="100" x2="50" y2="100"/>
  </g>
  <g id="t">
    <line x1="50" y1="0" x2="50" y2="100"/>
    <line x1="0" y1="0" x2="50" y2="0"/>
  </g>
  <g id="k">
    <line x1="0" y1="0" x2="0" y2="50"/>
    <line x1="0" y1="50" x2="50" y2="100"/>
  </g>
  <g id="f">
    <line x1="0" y1="0" x2="0" y2="50"/>
    <line x1="0" y1="0" x2="50" y2="0"/>
  </g>
  <g id="sh">
    <line x1="0" y1="0" x2="0" y2="50"/>
    <line x1="0" y1="0" x2="50" y2="50"/>
  </g>
  <g id="zh">
    <line x1="0" y1="0" x2="0" y2="50"/>
  </g>
  <g id="h">
    <line x1="0" y1="0" x2="0" y2="50"/>
    <line x1="0" y1="50" x2="50" y2="50"/>
    <line x1="50" y1="50" x2="50" y2="100"/>
  </g>
  <g id="u">
    <line x1="0" y1="0" x2="0" y2="50"/>
    <line x1="0" y1="50" x2="50" y2="50"/>
    <line x1="0" y1="0" x2="50" y2="0"/>
    <line x1="50" y1="0" x2="50" y2="50"/>
  </g>
  <g id="o">
    <line x1="0" y1="0" x2="0" y2="50"/>
    <line x1="0" y1="50" x2="50" y2="50"/>
    <line x1="0" y1="0" x2="50" y2="0"/>
  </g>
  <g id="ough">
    <line x1="0" y1="0" x2="0" y2="50"/>
    <line x1="0" y1="50" x2="50" y2="50"/>
    <line x1="0" y1="0" x2="50" y2="50"/>
  </g>
  <g id="a">
    <line x1="0" y1="0" x2="0" y2="50"/>
    <line x1="0" y1="0" x2="50" y2="50"/>
    <line x1="0" y1="50" x2="50" y2="100"/>
  </g>
  <g id="*">
    <line x1="50" y1="0" x2="50" y2="50"/>
    <line x1="50" y1="0" x2="100" y2="50"/>
    <line x1="50" y1="50" x2="0" y2="100"/>
  </g>
  <g id="mb">
    <line x1="0" y1="0" x2="0" y2="50"/>
    <line x1="0" y1="50" x2="50" y2="50"/>
    <line x1="0" y1="50" x2="50" y2="100"/>
  </g>
  <g id="ng">
    <line x1="0" y1="0" x2="0" y2="50"/>
    <line x1="0" y1="50" x2="50" y2="0"/>
    <line x1="0" y1="50" x2="50" y2="100"/>
  </g>
  <g id="staQuote">
    <line x1="0" y1="0" x2="0" y2="50"/>
    <line x1="0" y1="0" x2="50" y2="0"/>
  </g>
  <g id="kofa">
    <use href="#k" transform="translate(50,0)"/>
    <use href="#o" transform="translate(100,0)"/>
    <use href="#f" transform="translate(175,0)"/>
    <use href="#a" transform="translate(250,0)"/>
  </g>
  <g id="fash">
    <use href="#f" transform="translate(50,0)"/>
    <use href="#a" transform="translate(125,0)"/>
    <use href="#sh" transform="translate(200,0)"/>
  </g>
  <g id="tuf">
    <use href="#t" transform="translate(50,0)"/>
    <use href="#u" transform="translate(125,0)"/>
    <use href="#f" transform="translate(200,0)"/>
  </g>
  <g id="endQuote">
    <line x1="0" y1="0" x2="0" y2="50"/>
    <line x1="0" y1="0" x2="50" y2="50"/>
  </g>
  <g id=",">
    <line x1="0" y1="0" x2="0" y2="200"/>
  </g>
  <g id="kazhf">
    <use href="#k" transform="translate(50,0)"/>
    <use href="#a" transform="translate(100,0)"/>
    <use href="#zh" transform="translate(175,0)"/>
    <use href="#f" transform="translate(200,0)"/>
  </g>
  <g id="papfasho*">
    <use href="#p" transform="translate(50,0)"/>
    <use href="#a" transform="translate(125,0)"/>
    <use href="#p" transform="translate(200,0)"/>
    <use href="#f" transform="translate(275,0)"/>
    <use href="#a" transform="translate(350,0)"/>
    <use href="#sh" transform="translate(425,0)"/>
    <use href="#o" transform="translate(500,0)"/>
    <use href="#*" transform="translate(525,0)"/>
  </g>
  <g id="posh">
    <use href="#p" transform="translate(50,0)"/>
    <use href="#o" transform="translate(125,0)"/>
    <use href="#sh" transform="translate(200,0)"/>
  </g>
</defs>

<g stroke="#bac2de" stroke-width="10" stroke-linecap="square" fill="none" transform="scale(.80)">
  <use href="#staQuote" transform="translate(50,-75)" stroke="#bac2de"/>
  <use href="#kofa" transform="translate(0,0)" stroke="#bac2de"/>
  <use href="#fash" transform="translate(225,-125)" stroke="#bac2de"/>
  <use href="#tuf" transform="translate(225,0)" stroke="#bac2de"/>
  <use href="#endQuote" transform="translate(425,75)" stroke="#a6d189"/>
  <use href="#kazhf" transform="translate(500,0)" stroke="#bac2de"/>
  <use href="#papfasho*" transform="translate(725,0)" stroke="#bac2de"/>
  <use href="#posh" transform="translate(1325,0)" stroke="#bac2de"/>
</g>
</svg>
