<svg xmlns="http://www.w3.org/2000/svg"
   width="850" height="250" viewBox="-12.5 -12.5 850 250">

<!-- ===== GLYPH DEFINITIONS (LOCAL COORDS ONLY) ===== -->
<defs>
  <g id="p">
    <line x1="0" y1="0" x2="0" y2="100"/>
    <line x1="0" y1="0" x2="50" y2="0"/>
  </g>
  <g id="b">
    <line x1="0" y1="0" x2="0" y2="100"/>
    <line x1="0" y1="100" x2="50" y2="100"/>
  </g>
  <g id="t">
    <line x1="50" y1="0" x2="50" y2="100"/>
    <line x1="0" y1="0" x2="50" y2="0"/>
  </g>
  <g id="k">
    <line x1="0" y1="0" x2="0" y2="50"/>
    <line x1="0" y1="50" x2="50" y2="100"/>
  </g>
  <g id="f">
    <line x1="0" y1="0" x2="0" y2="50"/>
    <line x1="0" y1="0" x2="50" y2="0"/>
  </g>
  <g id="sh">
    <line x1="0" y1="0" x2="0" y2="50"/>
    <line x1="0" y1="0" x2="50" y2="50"/>
  </g>
  <g id="zh">
    <line x1="0" y1="0" x2="0" y2="50"/>
  </g>
  <g id="h">
    <line x1="0" y1="0" x2="0" y2="50"/>
    <line x1="0" y1="50" x2="50" y2="50"/>
    <line x1="50" y1="50" x2="50" y2="100"/>
  </g>
  <g id="u">
    <line x1="0" y1="0" x2="0" y2="50"/>
    <line x1="0" y1="50" x2="50" y2="50"/>
    <line x1="0" y1="0" x2="50" y2="0"/>
    <line x1="50" y1="0" x2="50" y2="50"/>
  </g>
  <g id="o">
    <line x1="0" y1="0" x2="0" y2="50"/>
    <line x1="0" y1="50" x2="50" y2="50"/>
    <line x1="0" y1="0" x2="50" y2="0"/>
  </g>
  <g id="ou">
    <line x1="0" y1="0" x2="0" y2="50"/>
    <line x1="0" y1="50" x2="50" y2="50"/>
    <line x1="0" y1="0" x2="50" y2="50"/>
  </g>
  <g id="a">
    <line x1="0" y1="0" x2="0" y2="50"/>
    <line x1="0" y1="0" x2="50" y2="50"/>
    <line x1="0" y1="50" x2="50" y2="100"/>
  </g>
  <g id="*">
    <line x1="50" y1="0" x2="50" y2="50"/>
    <line x1="50" y1="0" x2="100" y2="50"/>
    <line x1="50" y1="50" x2="0" y2="100"/>
  </g>
  <g id="mb">
    <line x1="0" y1="0" x2="0" y2="50"/>
    <line x1="0" y1="50" x2="50" y2="50"/>
    <line x1="0" y1="50" x2="50" y2="100"/>
  </g>
  <g id="ng">
    <line x1="0" y1="0" x2="0" y2="50"/>
    <line x1="0" y1="50" x2="50" y2="0"/>
    <line x1="0" y1="50" x2="50" y2="100"/>
  </g>
  <g id="but">
    <use href="#b" transform="translate(50,0)"/>
    <use href="#u" transform="translate(75,0)"/>
    <use href="#t" transform="translate(150,0)"/>
  </g>
</defs>
<g stroke="#bac2de" stroke-width="10" stroke-linecap="square" fill="none"><use href="#k" transform="translate(0, 125)"/><use href="#o" transform="translate(75, 125)"/><use href="#f" transform="translate(150, 125)"/><use href="#a" transform="translate(225, 125)"/><use href="#b" transform="translate(300, 125)"/><use href="#u" transform="translate(375, 125)"/><use href="#t" transform="translate(450, 125)"/><use href="#f" transform="translate(300, 50)"/><use href="#a" transform="translate(375, 0)"/><use href="#sh" transform="translate(450, 50)"/></g></svg>
